<svg width="102" height="84" viewBox="0 0 102 84" fill="none" xmlns="http://www.w3.org/2000/svg">
<path d="M34.6729 1.08765L37.5762 6.87378L37.8164 7.35229L37.3223 7.55933C30.7364 10.3113 24.9942 14.6524 20.0957 20.5945C15.4221 26.5243 13.1133 32.5232 13.1133 38.5984C13.1133 40.8274 13.3595 42.7952 13.8447 44.5076C17.2424 41.9494 21.139 40.6697 25.5166 40.6697C31.436 40.6698 36.3967 42.6384 40.3643 46.5818C44.5717 50.3329 46.6611 55.4055 46.6611 61.741C46.6611 67.6591 44.5652 72.7151 40.3848 76.8806C36.4139 80.8372 31.4459 82.8122 25.5166 82.8123C16.9656 82.8123 10.458 79.3019 6.06152 72.2937L5.71777 71.738C2.23087 65.9623 0.5 58.9793 0.5 50.8123C0.500001 40.0098 3.21138 30.2737 8.64062 21.6179L8.64551 21.6101C14.2979 12.9452 22.7659 6.0323 34.0166 0.858154L34.4561 0.656006L34.6729 1.08765ZM89.5117 1.08765L92.415 6.87378L92.6553 7.35229L92.1602 7.55933C85.5744 10.3113 79.833 14.6526 74.9346 20.5945C70.2609 26.5244 67.9512 32.5231 67.9512 38.5984C67.9512 40.8274 68.1984 42.7952 68.6836 44.5076C72.0812 41.9495 75.9771 40.6697 80.3545 40.6697C86.2741 40.6697 91.2355 42.6383 95.2031 46.5818C99.4105 50.3329 101.5 55.4055 101.5 61.741C101.5 67.6591 99.4041 72.7151 95.2236 76.8806C91.2527 80.8374 86.284 82.8123 80.3545 82.8123C71.8032 82.8122 65.2958 79.3015 60.8994 72.2927C57.1832 66.4112 55.3389 59.2425 55.3389 50.8123C55.3389 40.0098 58.0502 30.2737 63.4795 21.6179L63.4844 21.6101C69.1368 12.9452 77.6048 6.03229 88.8555 0.858154L89.2949 0.656006L89.5117 1.08765Z" stroke="url(#paint0_linear_3306_103)"/>
<defs>
<linearGradient id="paint0_linear_3306_103" x1="0.750061" y1="54.7208" x2="121.357" y2="72.281" gradientUnits="userSpaceOnUse">
<stop stop-color="#53F3CD"/>
<stop offset="1" stop-color="#53F3CD" stop-opacity="0"/>
</linearGradient>
</defs>
</svg>
