<svg xmlns="http://www.w3.org/2000/svg" xmlns:xlink="http://www.w3.org/1999/xlink">
    <symbol id="dollar" viewBox="0 0 18 39">
        <path d="M7.72003 4.83997C9.05336 4.83997 10.0667 4.99997 10.76 5.31997C11.4534 5.61331 12.0667 5.94664 12.6 6.31997C12.92 6.50664 13.1734 6.65331 13.36 6.75998C13.5734 6.83997 13.7734 6.87997 13.96 6.87997C14.2267 6.87997 14.4134 6.73331 14.52 6.43997C14.6534 6.14664 14.76 5.70664 14.84 5.11998H15.76C15.7334 5.57331 15.6934 6.11997 15.64 6.75998C15.6134 7.37331 15.5867 8.19998 15.56 9.23997C15.56 10.2533 15.56 11.6 15.56 13.28H14.64C14.56 12 14.28 10.7733 13.8 9.59997C13.32 8.42664 12.6134 7.46664 11.68 6.71997C10.7734 5.97331 9.57336 5.59997 8.08003 5.59997C6.66669 5.59997 5.49336 6.02664 4.56003 6.87997C3.65336 7.73331 3.20003 8.85331 3.20003 10.24C3.20003 11.1466 3.37336 11.9333 3.72003 12.6C4.09336 13.2666 4.58669 13.88 5.20003 14.44C5.84003 14.9733 6.56003 15.4933 7.36003 16C8.16003 16.48 9.01336 17 9.92003 17.56C11.3067 18.4133 12.5334 19.2666 13.6 20.12C14.6934 20.9466 15.5467 21.8666 16.16 22.88C16.8 23.8933 17.12 25.12 17.12 26.56C17.12 28.2666 16.7334 29.68 15.96 30.8C15.1867 31.92 14.16 32.76 12.88 33.32C11.6 33.88 10.1867 34.16 8.64003 34.16C7.22669 34.16 6.10669 34 5.28003 33.68C4.45336 33.36 3.74669 33.0266 3.16003 32.68C2.84003 32.4666 2.57336 32.32 2.36003 32.24C2.14669 32.16 1.96003 32.12 1.80003 32.12C1.53336 32.12 1.33336 32.2666 1.20003 32.56C1.09336 32.8533 1.00003 33.2933 0.920027 33.88H2.69115e-05C0.0533603 33.32 0.0800269 32.6666 0.0800269 31.92C0.106694 31.1466 0.120027 30.1466 0.120027 28.92C0.146694 27.6933 0.160027 26.1466 0.160027 24.28H1.08003C1.16003 25.48 1.34669 26.6266 1.64003 27.72C1.93336 28.8133 2.36003 29.7866 2.92003 30.64C3.48003 31.4933 4.20003 32.16 5.08003 32.64C5.98669 33.12 7.08003 33.36 8.36003 33.36C9.24003 33.36 10.0667 33.1866 10.84 32.84C11.64 32.4666 12.2934 31.8933 12.8 31.12C13.3067 30.32 13.56 29.2933 13.56 28.04C13.56 27.24 13.4134 26.5066 13.12 25.84C12.8267 25.1733 12.4 24.56 11.84 24C11.28 23.44 10.6134 22.8933 9.84003 22.36C9.09336 21.8266 8.25336 21.28 7.32003 20.72C6.06669 19.9466 4.89336 19.16 3.80003 18.36C2.70669 17.56 1.82669 16.64 1.16003 15.6C0.520027 14.5333 0.200027 13.2533 0.200027 11.76C0.200027 10.1866 0.546694 8.89331 1.24003 7.87998C1.96003 6.83997 2.89336 6.07997 4.04003 5.59997C5.18669 5.09331 6.41336 4.83997 7.72003 4.83997ZM7.12003 -2.57492e-05V38.88H6.32003V-2.57492e-05H7.12003ZM10.48 -2.57492e-05V38.88H9.68003V-2.57492e-05H10.48Z" fill="#E4E4E4"/>
</symbol>    
    
</svg>


